# Blender v2.82 (sub 7) OBJ File: 'airlock.blend'
# www.blender.org
mtllib airlock.mtl
o door_l_Cube
v -0.500000 0.050000 -2.000000
v -0.500000 -0.050000 -2.000000
v -0.500000 0.050000 0.000000
v -0.500000 -0.050000 0.000000
v 0.340642 -0.050000 0.000000
v -0.340511 -0.050000 -2.000000
v 0.340642 0.050000 -0.854775
v -0.340510 0.050000 -1.139653
v -0.340511 0.050000 -2.000000
v 0.340642 -0.050000 -0.854775
v -0.340510 -0.050000 -1.139653
v 0.340642 0.050000 0.000000
vt 0.375000 0.000000
vt 0.625000 0.000000
vt 0.625000 0.250000
vt 0.375000 0.250000
vt 0.125000 0.500000
vt 0.200253 0.500000
vt 0.200254 0.625348
vt 0.300973 0.625348
vt 0.300973 0.750000
vt 0.125000 0.750000
vt 0.625000 0.325253
vt 0.375000 0.325253
vt 0.699027 0.750000
vt 0.699027 0.625348
vt 0.799746 0.625348
vt 0.799747 0.500000
vt 0.875000 0.500000
vt 0.875000 0.750000
vt 0.375000 0.824027
vt 0.625000 0.824027
vt 0.625000 1.000000
vt 0.375000 1.000000
vn -1.0000 0.0000 0.0000
vn 0.0000 -1.0000 0.0000
vn 0.0000 0.0000 -1.0000
vn 0.0000 1.0000 0.0000
vn 0.0000 0.0000 1.0000
vn 1.0000 0.0000 -0.0000
vn 0.3858 0.0000 -0.9226
usemtl Material
s off
f 4/1/1 3/2/1 1/3/1 2/4/1
f 2/5/2 6/6/2 11/7/2 10/8/2 5/9/2 4/10/2
f 2/4/3 1/3/3 9/11/3 6/12/3
f 12/13/4 7/14/4 8/15/4 9/16/4 1/17/4 3/18/4
f 5/19/5 12/20/5 3/21/5 4/22/5
f 10/8/6 7/14/6 12/20/6 5/9/6
f 11/7/7 8/15/7 7/14/7 10/8/7
f 6/6/6 9/16/6 8/15/6 11/7/6
o door_r_Cube.001
v 0.500000 0.050000 -2.000000
v 0.500000 -0.050000 -2.000000
v 0.500000 0.050000 0.000000
v 0.500000 -0.050000 0.000000
v -0.340511 0.050000 -2.000000
v 0.338822 0.050000 0.000000
v 0.340642 -0.050000 -0.854775
v -0.342330 -0.050000 -1.139653
v -0.340511 -0.050000 -2.000000
v 0.338822 -0.050000 0.000000
v 0.340642 0.050000 -0.854775
v -0.342330 0.050000 -1.139653
vt 0.625000 0.500000
vt 0.799747 0.500000
vt 0.799746 0.625348
vt 0.699027 0.625348
vt 0.699027 0.750000
vt 0.625000 0.750000
vt 0.375000 0.750000
vt 0.625000 0.824027
vt 0.375000 0.824027
vt 0.375000 0.500000
vt 0.375000 0.325253
vt 0.625000 0.325253
vt 0.300973 0.750000
vt 0.300973 0.625348
vt 0.200254 0.625348
vt 0.200253 0.500000
vn 0.0000 1.0000 0.0000
vn 0.0000 0.0000 1.0000
vn 1.0000 0.0000 0.0000
vn 0.0000 0.0000 -1.0000
vn 0.0000 -1.0000 0.0000
vn -1.0000 -0.0000 -0.0021
vn -0.3850 0.0000 0.9229
usemtl Material
s off
f 13/23/8 17/24/8 24/25/8 23/26/8 18/27/8 15/28/8
f 16/29/9 15/28/9 18/30/9 22/31/9
f 14/32/10 13/23/10 15/28/10 16/29/10
f 21/33/11 17/34/11 13/23/11 14/32/11
f 22/35/12 19/36/12 20/37/12 21/38/12 14/32/12 16/29/12
f 23/26/13 19/36/13 22/35/13 18/30/13
f 20/37/14 19/36/14 23/26/14 24/25/14
f 21/38/13 20/37/13 24/25/13 17/24/13
